<svg xmlns="http://www.w3.org/2000/svg" width="64.105" height="64.105" viewBox="0 0 64.105 64.105"><path d="M26.686,39.6c0,2.762-2,3.634-4.464,3.634H15.769V35.662h6.582C25.012,35.676,26.686,36.778,26.686,39.6Zm-1.1-11.776c0-2.533-1.96-3.134-4.135-3.134H15.783V31.1h6.11C24.054,31.1,25.585,30.153,25.585,27.82Zm18.931,3.32a4.265,4.265,0,0,0-4.536,4.25h8.9C48.637,32.743,47.263,31.14,44.516,31.14ZM64.1,9.118V59.486a6.87,6.87,0,0,1-6.868,6.868H6.868A6.87,6.87,0,0,1,0,59.486V9.118A6.87,6.87,0,0,1,6.868,2.25H57.236A6.87,6.87,0,0,1,64.1,9.118ZM38.878,24.143H50.01v-2.7H38.878ZM32.725,39.926c0-3.448-1.631-6.425-5.008-7.383,2.461-1.173,3.749-2.533,3.749-5.294,0-5.466-4.078-6.8-8.786-6.8H9.73V47.924H23.052C28.046,47.9,32.725,45.506,32.725,39.926Zm21.65-2.118c0-5.881-3.448-10.789-9.673-10.789-6.067,0-10.174,4.55-10.174,10.531C34.528,43.746,38.434,48,44.7,48c4.751,0,7.827-2.132,9.315-6.7H49.195c-.529,1.7-2.661,2.59-4.321,2.59-3.205,0-4.879-1.874-4.879-5.051H54.332C54.346,38.509,54.374,38.151,54.374,37.808Z" transform="translate(0 -2.25)"/></svg>