<svg xmlns="http://www.w3.org/2000/svg" width="64.105" height="64.105" viewBox="0 0 64.105 64.105"><path d="M56.033,1.928H13.213A10.674,10.674,0,0,0,2.571,12.57V55.39A10.674,10.674,0,0,0,13.213,66.033h42.82A10.674,10.674,0,0,0,66.675,55.39V12.57A10.674,10.674,0,0,0,56.033,1.928ZM23.092,29.974H46.154a12.207,12.207,0,1,1-23.063,0Zm35.571,0V54.013a4.018,4.018,0,0,1-4.007,4.007H14.59a4.018,4.018,0,0,1-4.007-4.007V29.974h6.267a18.217,18.217,0,1,0,35.545,0Zm0-14.026a2.009,2.009,0,0,1-2,2H52.652a2.009,2.009,0,0,1-2-2V11.944a2.009,2.009,0,0,1,2-2h4.007a2.009,2.009,0,0,1,2,2Z" transform="translate(-2.571 -1.928)"/></svg>