<?xml version="1.0" encoding="UTF-8" standalone="no"?>
<!DOCTYPE svg PUBLIC "-//W3C//DTD SVG 1.1//EN" "http://www.w3.org/Graphics/SVG/1.1/DTD/svg11.dtd">
<svg width="100%" height="100%" viewBox="0 0 512 512" version="1.1" xmlns="http://www.w3.org/2000/svg" xmlns:xlink="http://www.w3.org/1999/xlink" xml:space="preserve" xmlns:serif="http://www.serif.com/" style="fill-rule:evenodd;clip-rule:evenodd;stroke-linejoin:round;stroke-miterlimit:2;">
    <g transform="matrix(6.12323e-17,-1,1,6.12323e-17,0.000812506,512)">
        <path d="M508.875,248.458L348.875,88.458C344.708,84.291 337.958,84.291 333.792,88.458C329.625,92.625 329.625,99.375 333.792,103.541L475.584,245.333L10.667,245.333C4.771,245.333 0,250.104 0,256C0,261.896 4.771,266.667 10.667,266.667L475.584,266.667L333.792,408.458C329.625,412.625 329.625,419.375 333.792,423.541C335.875,425.624 338.605,426.666 341.334,426.666C344.063,426.666 346.792,425.624 348.876,423.541L508.876,263.541C513.042,259.375 513.042,252.625 508.875,248.458Z" style="fill:white;fill-rule:nonzero;"/>
    </g>
</svg>
